<?xml version="1.0" encoding="UTF-8"?>
<svg id="Layer_2" data-name="Layer 2" xmlns="http://www.w3.org/2000/svg" viewBox="0 0 282.49 367.27">
  <defs>
    <style>
      .cls-1 {
        opacity: .5;
      }

      .cls-2 {
        opacity: .2;
      }

      .cls-3 {
        opacity: .75;
      }

      .cls-4 {
        fill: #009edb;
      }

      .cls-5 {
        opacity: .3;
      }

      .cls-6 {
        opacity: .4;
      }
    </style>
  </defs>
  <g id="UNOSAT_ICON_WITHOUT_TEXT" data-name="UNOSAT ICON WITHOUT TEXT">
    <g id="Blue_Icon" data-name="Blue Icon">
      <g>
        <path class="cls-4" d="m38.21,309.54h-4.19c-1.14,0-1.66.51-1.66,1.65v36.6c0,6.17-4.32,12.72-12.31,12.72s-12.32-6.57-12.32-12.72v-36.6c0-1.14-.52-1.65-1.67-1.65H1.85c-1.15,0-1.66.51-1.66,1.65v36.6c0,11.1,8.52,19.46,19.84,19.46s19.83-8.36,19.83-19.46v-36.6c0-1.14-.51-1.65-1.66-1.65"/>
        <path class="cls-4" d="m87.84,309.54h-3.57c-1.14,0-1.65.51-1.65,1.65v34.72c.07,1.03-.72,1.93-1.75,2-.02,0-.03,0-.05,0-.9-.07-1.7-.61-2.09-1.42l-19.71-34.72c-.94-1.62-1.68-2.21-2.69-2.21h-4.84c-1.14,0-1.66.51-1.66,1.65v53.13c0,1.15.52,1.67,1.66,1.67h3.56c1.15,0,1.66-.52,1.66-1.67v-35.1c-.06-1.03.74-1.92,1.77-1.98.04,0,.07,0,.11,0,.92.06,1.73.63,2.08,1.48l19.71,35.03c.94,1.62,1.68,2.22,2.7,2.22h4.82c1.14,0,1.67-.52,1.67-1.67v-53.14c0-1.14-.53-1.65-1.67-1.65"/>
        <path class="cls-4" d="m119.28,308.27c-11.26,0-19.81,8.36-19.81,19.45v20.07c0,11.1,8.52,19.47,19.81,19.47s19.86-8.37,19.86-19.47v-20.07c0-11.1-8.53-19.45-19.86-19.45m12.34,39.53c0,6.17-4.33,12.71-12.34,12.71s-12.32-6.57-12.32-12.71v-20.07c0-6.17,4.34-12.72,12.32-12.72s12.34,6.57,12.34,12.72v20.07Z"/>
        <path class="cls-4" d="m165.82,332.93c-3.88-.15-11.26-2.23-11.26-9.03,0-3.61,3.02-9.02,11.32-9.02,3.49.03,6.82,1.42,9.3,3.88.66.68,1.71.79,2.51.27l3.05-2.16c.62-.29.88-1.02.6-1.63-.09-.2-.23-.36-.41-.49-3.84-4.22-9.31-6.58-15.01-6.48-12.11,0-18.43,7.87-18.43,15.63,0,9.22,6.91,15.01,18.49,15.64,4.2,0,12.26,2.05,12.26,9.79,0,5.57-3.8,11.17-12.32,11.17-6.57,0-11.18-4.48-13.89-8.22-.26-.44-.72-.73-1.24-.76-.33,0-.66.1-.94.28l-2.88,2.03c-.76.38-1.06,1.3-.68,2.05.06.12.14.23.22.33,2.61,4.14,8.58,11.05,19.38,11.05,11.86,0,19.83-7.22,19.83-17.93,0-13.79-13.91-16.07-19.89-16.4"/>
        <path class="cls-4" d="m215.51,308.27c-11.26,0-19.83,8.36-19.83,19.45v36.6c0,1.14.51,1.66,1.65,1.66h4.19c1.14,0,1.67-.52,1.67-1.66v-19.58c-.14-2.03,1.39-3.78,3.42-3.92.17-.01.34-.01.52,0h16.78c2.03-.14,3.79,1.4,3.93,3.43.01.16.01.33,0,.5v19.58c0,1.14.5,1.66,1.65,1.66h4.19c1.14,0,1.67-.52,1.67-1.66v-36.6c0-11.1-8.53-19.45-19.85-19.45m12.33,22.52c.14,2.03-1.38,3.8-3.42,3.94-.17.01-.34.01-.52,0h-16.78c-2.03.15-3.79-1.38-3.93-3.41-.01-.18-.01-.36,0-.54v-3.04c0-6.17,4.32-12.72,12.31-12.72s12.33,6.57,12.33,12.72v3.04Z"/>
        <path class="cls-4" d="m280.29,309.54h-36.34c-1.16,0-1.68.51-1.68,1.65v2.82c0,1.14.52,1.66,1.68,1.66h10.55c2.03-.15,3.79,1.38,3.93,3.41.01.17.01.35,0,.53v44.73c0,1.15.5,1.67,1.64,1.67h4.07c1.15,0,1.66-.52,1.66-1.67v-44.74c-.15-2.03,1.38-3.79,3.41-3.93.17-.01.35-.01.53,0h10.56c1.14,0,1.66-.52,1.66-1.66v-2.82c0-1.14-.52-1.65-1.66-1.65"/>
        <path class="cls-4" d="m267.11,197.42c-2.54,5.95,4.27,11.81,10.06,7.99,3-2.04,3.79-6.12,1.75-9.12-.69-1.02-1.66-1.83-2.79-2.32-3.21-1.39-7.64.27-9.02,3.46"/>
        <path class="cls-4" d="m240.8,200.24c0,7.74,7.34,10.46,12.72,7.51,2.61-1.35,4.34-3.94,4.61-6.86,0-12.56-17.35-10.4-17.32-.64"/>
        <path class="cls-4" d="m230.12,209.57c10.89-5.63,3.38-22.3-8.16-18.01-12.07,4.48-4.82,24.67,8.16,18.01"/>
        <path class="cls-4" d="m211.5,197.96c-2.06-5.37-8.09-8.05-13.46-5.99-5.08,1.95-7.81,7.49-6.25,12.7,2.27,6.63,9.05,8.45,14.55,5.63,4.98-2.54,6.93-7.18,5.18-12.34"/>
        <path class="cls-4" d="m276.44,182.85c8.64-4.55,1.78-16.89-6.32-13.75-9.27,3.56-3.38,18.84,6.32,13.75"/>
        <path class="cls-4" d="m174.15,192.32c-12.06,4.07-5.11,24.02,7.51,17.41,10.24-5.36,3.43-21.14-7.51-17.41"/>
        <path class="cls-4" d="m253.76,184.45c3.43-2,4.86-5.27,4.82-7.37-.06-6.43-5.7-9.97-9.08-9.95-16.26.15-9.76,25.34,4.26,17.31"/>
        <path class="cls-4" d="m229.96,186.38c11.73-5.95,3.93-24.15-8.64-19.44-13.01,4.83-5.2,26.51,8.64,19.44"/>
        <path class="cls-4" d="m161.73,198.98c-3.66-10.8-20.64-5.49-16.79,5.71,1.88,5.63,7.27,7.57,12.58,4.69,4.8-2.61,5.56-6.41,4.2-10.4"/>
        <path class="cls-4" d="m197.54,166.46c-5.9,2.22-9.07,8.63-7.24,14.66,2.25,6.65,9.92,9.19,15.65,6.57,12.74-5.99,4.92-25.72-8.45-21.18"/>
        <path class="cls-4" d="m137.48,203.12c1.02-11.73-15.33-10.56-16.12-1.88-.42,4.39,2.8,8.28,7.18,8.7,1.27.12,2.55-.06,3.74-.54,4.27-1.82,5.05-4.33,5.22-6.28"/>
        <path class="cls-4" d="m265.42,156.44c2.21,4.39,7.16,5.7,11.97,2.87,3.18-1.64,4.82-5.24,3.98-8.72-3-13.31-21.58-5.29-15.95,5.85"/>
        <path class="cls-4" d="m173.25,166.95c-5.49,2.29-8.34,8.39-6.57,14.08,2.22,6.57,9.58,8.86,15.16,6.25,12.49-5.87,4.52-25.18-8.54-20.33"/>
        <path class="cls-4" d="m253.63,161.27c4.36-2.41,4.83-5.14,5.08-6.57.53-3.5-.67-7.04-3.23-9.5-3.71-3.44-10.7-3.18-14.39.81-7.45,8.04,2.63,20.8,12.54,15.29"/>
        <path class="cls-4" d="m112.46,201.46c-1.23-5.95-5.56-6.34-8.09-5.83-10.46,2.19-4.83,18.95,5.08,12.53,2.34-1.36,3.55-4.05,3.01-6.7"/>
        <path class="cls-4" d="m162.81,174.57c-1.86-5.44-7.77-8.35-13.21-6.49-5.44,1.86-8.35,7.77-6.49,13.21h0c2.25,6.63,9.04,8.45,14.53,5.63,5-2.56,6.95-7.2,5.18-12.37"/>
        <path class="cls-4" d="m79.86,196.64c-6.52,1.88-4.9,11.26.43,12.07,1.19.08,2.38-.19,3.43-.77,7.31-3.31,2.42-13.08-3.86-11.26"/>
        <path class="cls-4" d="m125.94,169.17c-12.04,4.1-4.89,24.06,7.51,17.43,9.99-5.37,3.43-21.16-7.51-17.43"/>
        <path class="cls-4" d="m277.27,136.12c3.43-1.98,4.86-5.24,4.83-7.35-.06-6.43-5.71-9.98-9.06-9.97-16.29.17-9.78,25.38,4.23,17.31"/>
        <path class="cls-4" d="m253.49,138.08c11.71-5.97,3.93-24.16-8.65-19.48-13.01,4.85-5.2,26.54,8.65,19.48"/>
        <path class="cls-4" d="m101.93,170.41c-11.26,4.26-3.49,21.13,7.04,15.95,10.32-5.1,2.82-19.71-7.04-15.95"/>
        <path class="cls-4" d="m89.17,179.63c1.02-11.74-15.34-10.6-16.12-1.88-.59,6.65,6.14,10.13,10.91,8.12,4.27-1.88,5.04-4.28,5.21-6.25"/>
        <path class="cls-4" d="m139.9,155.05c.11-2.92-.86-5.77-2.73-8.01-7.63-9.5-27.21,1.97-17,14.75,2.39,2.96,8.03,4.46,12.34,2.7,6.05-2.41,7.34-6.67,7.39-9.44"/>
        <path class="cls-4" d="m114.5,151.06c-1.65-5.51-7.45-8.65-12.96-7-5.51,1.65-8.65,7.45-7,12.96.08.25.16.51.26.75,2.25,6.63,9.06,8.45,14.55,5.63,4.98-2.57,6.93-7.18,5.18-12.36"/>
        <path class="cls-4" d="m90.36,155.64c.69-13.64-18.77-12.79-19.27-1.62-.39,7.63,7.51,11.74,12.98,9.47,5.47-2.27,6.17-5.49,6.29-7.85"/>
        <path class="cls-4" d="m115.49,129.94c-1.18-16.19-22.63-11.77-21.72.87.68,9.24,9.46,13.04,16.77,8.55,3.31-1.92,5.24-5.56,4.95-9.38"/>
        <path class="cls-4" d="m77.25,121.75c-12.05,4.07-4.88,24.04,7.51,17.39,10.02-5.34,3.45-21.13-7.51-17.39"/>
        <path class="cls-4" d="m114.09,103.09c-1.85-5.44-7.76-8.35-13.2-6.5-5.44,1.85-8.35,7.76-6.5,13.2,2.25,6.64,9.05,8.45,14.55,5.63,4.97-2.55,6.93-7.16,5.16-12.35"/>
        <path class="cls-4" d="m77.11,98.58c-11.26,4.26-3.5,21.14,7.05,15.95,10.28-5.11,2.82-19.71-7.05-15.95"/>
        <path class="cls-4" d="m132.97,72.28c-1.95-.76-4.03-1.17-6.13-1.19-9.02,1.25-12.08,10.69-8.45,17.14,2.97,5.19,9.96,6.17,15.28,2.97,7.24-4.42,5.96-15.38-.72-18.91"/>
        <path class="cls-4" d="m100.76,73.43c-12.06,4.09-4.88,24.07,7.51,17.42,10.01-5.36,3.46-21.14-7.51-17.42"/>
        <path class="cls-4" d="m162.38,53.35c-5.48-13.62-27.65-5.53-21.3,9.27,1.97,4.23,6.24,6.92,10.91,6.86,9.71-.59,12.89-9.93,10.4-16.16"/>
        <path class="cls-4" d="m88,83.86c1.06-11.73-15.33-10.59-16.1-1.88-.4,4.38,2.83,8.25,7.21,8.64,1.26.11,2.53-.07,3.7-.55,4.28-1.82,5.03-4.31,5.2-6.26"/>
        <path class="cls-4" d="m135.16,51.17c-5.38-6.14-17.69-2.55-18.26,6.19-.44,5.68,3.81,10.65,9.5,11.09,1.84.14,3.68-.21,5.33-1.02,5.16-2.27,7.51-8.29,5.24-13.45-.45-1.02-1.06-1.96-1.81-2.78"/>
        <path class="cls-4" d="m180.01,42.87c11.69-5.98,3.92-24.16-8.65-19.49-13.02,4.85-5.2,26.52,8.65,19.49"/>
        <path class="cls-4" d="m100.27,50.38c-10.72,4.04-3.86,21.52,7.07,15.95,9.95-5.08,2.41-19.5-7.07-15.95"/>
        <path class="cls-4" d="m161.77,31.14c-2.92-10.65-18.17-10.26-20.99-.62-2.46,8.45,6.24,17.75,15.68,12.57,4.8-2.6,6.57-7.24,5.31-11.96"/>
        <path class="cls-4" d="m77.58,51.96c-9.47,2.82-4.03,18.01,5.45,12.42,7.51-4.41.94-14.27-5.45-12.42"/>
        <path class="cls-4" d="m127.34,24.49c-4.98.18-9.88,4.9-9.71,9.82.27,8.16,8.06,11.17,13.83,8.34,10.32-5.04,3.97-18.44-4.12-18.16"/>
        <path class="cls-4" d="m111.4,33.98c-1.18-11.54-16.1-8.63-15.86.08.19,7.23,6.91,10.04,12.34,6.39,2.18-1.44,3.5-3.86,3.52-6.47"/>
        <path class="cls-4" d="m160.8,11.5c.73-5.44-2.96-10.48-8.36-11.43-9.23-1.07-15.16,10.17-8.45,17.11,2.7,2.82,7.72,3.4,12.07.8,2.82-1.69,4.47-4.12,4.69-6.47"/>
        <path class="cls-4" d="m84.92,33.98c-2-10.63-15.78-3.45-10.71,4.48,1.68,2.62,5.5,2.82,8.45.8,1.79-1.1,2.7-3.21,2.28-5.27"/>
        <path class="cls-4" d="m123.84,2.06c-10.72,4.03-3.88,21.52,7.03,15.95,9.98-5.08,2.44-19.5-7.03-15.95"/>
        <path class="cls-4" d="m101.1,3.62c-9.46,2.82-4.04,17.99,5.43,12.41,7.51-4.41.94-14.27-5.43-12.41"/>
        <path class="cls-4" d="m77.09,6.11c-6.1,2.47-1.53,11.41,3.84,8.88,6.65-3.12.94-10.79-3.84-8.88"/>
        <path class="cls-4" d="m180.81,165.2c4.29-1.45,6.76-5.56,8.14-8.45,2.9,11.07,18.11,11.13,22.82,2.46.87-1.65.69-3.27,1.56-5.04,1.65,8.11,8.35,12.46,15.55,9.8,6.57-2.41,8.55-9.61,6.88-14.55-4.03-11.81-22.03-8.91-22.52,3.21-.19-1.81-.65-3.58-1.37-5.26-1.54-3.18-4.93-4.22-5.77-6.18,4.42-1.28,5.79-5.63,7.27-7.37,3.44,6.34,10.1,9.03,16.64,5.77,10.13-5.1,6.34-20.8-2.82-22.68,6.94-1.88,8.65-6.31,9.7-11.04,1.61,7.88,8.31,12.07,15.42,9.38,6.57-2.45,8.69-9.73,6.75-14.92-4.09-11.04-21-8.84-22.32,2.69-1.17-7.05-6.45-9.09-9.32-10.67,7.63-2.96,10.25-9.93,7.51-16.39-4.6-10.69-20.35-7.56-22.67,1.58-2.24-5.73-6.19-8.02-10.8-8.95,7.42-1.41,10.32-8.1,9.69-12.26-1.5-9.87-10.21-12.73-17.6-8.69-5.4,2.96-6.48,10.64-3.57,15.9,1.74,3.16,5.07,3.96,7.96,5.43-5.11.09-8.06,5.3-9.86,7.02-1.72-4.26-6.41-5.92-8.57-7.29,6.57-3.12,9.8-8.32,7.51-15.17-2.01-6.2-8.66-9.6-14.87-7.6-.15.05-.3.1-.45.16-11.57,3.94-9.44,20.18.5,23.05-5.89,1.35-7.11,6.57-9.22,8.83-6.7-17.03-30.52-4.47-21.64,10.6,1.42,2.46,4.87,3.58,6.22,5.22-5.33,1.82-7.06,5.45-8.24,9.34-2.59-6.82-7.51-9.8-13.45-8.45-8.75,1.97-11.5,10.22-8.08,16.99,2.88,5.79,10.48,7.51,15.88,4.8,3.2-1.6,4.34-4.62,6.05-7.34,1.14,5.72,5.78,7.57,7.99,9.1-4.69,1.53-6.39,6.17-7.76,8.34-5.85-15.95-27.86-6.57-22.65,7.68,4.13,11.26,20.17,8.64,22.93-.84,1.41,6.18,6.72,7.74,9.33,9.45-12.07,3.55-10,19.63-.12,22.44,6.72,1.88,15.52-4.07,15.19-10.46,1.32,8.33,8.95,12.87,16.15,10.41m-24.91-72.19c4.39-1.58,6.48-4.3,7.14-7.73,1.78,2.97,3.34,6.4,6.14,7.29-1.88,2.13-4.83,3.7-5.63,6.37-2.43-2.26-4.8-4.62-7.69-5.93m32.77-6.66c1.04,3.44,3.18,4.69,5.28,5.96-1.37,2.18-4.82,3.29-5.35,5.88-1.8-1.88-3.39-4.25-5.76-4.96,2.7-1.94,4-4.54,5.83-6.88m17.24,6.36c2.97-2.28,5.63-4.69,6.18-8.17,2.36,4.05,5.06,7.39,9.17,7.86-3.57,1.77-7.08,3.59-7.89,6.76-2.38-2.33-4.19-5.89-7.46-6.45m-42.52,30.76c-1.36-2.67-3.76-4.66-6.63-5.49,2.57-1.38,4.84-3.26,6.67-5.54,1.35,2.82,3.62,3.75,5.27,5.97-2.05,1.09-3.6,2.93-4.34,5.12-.41.22-.69.15-.85-.09m24.95-10.53c2.06.94,3.09,3.99,5.51,4.25-1.56,1.76-4.34,2.93-4.69,5.28-2.08-.72-3.04-3.75-5.15-4.38,1.41-1.75,3.65-3.06,4.37-5.15m18.56,4.31c2.82-1.22,4.98-3.58,5.94-6.5,2.5,2.74,4.86,5.75,8.57,6.04-3.86,1.95-7.25,4.14-8.01,7.6-2.03-2.69-3.97-5.5-6.49-7.14m-11.34,24.19c-2.93,2.42-6.19,4.69-6.57,8.37-2.14-2.65-3.75-6.5-6.87-7.07,2.17-2.17,5.63-3.71,6.3-6.63,2.27,1.96,4.01,5.07,7.11,5.32m-39.88,1.34c3.47-1.49,6.46-3.91,8.62-7,1.55,3.81,4.19,5.44,7.1,6.57-3.55,2.52-6.34,5.41-6.57,9.55-2.18-4.82-4.82-8.71-9.2-9.08"/>
        <path class="cls-4" d="m196.1,270.41c-2.57,5.94,4.24,11.81,10.04,7.97,3.01-2.03,3.79-6.12,1.76-9.12-.7-1.03-1.67-1.84-2.8-2.34-3.22-1.38-7.65.3-9,3.49"/>
        <path class="cls-4" d="m169.74,273.22c0,7.76,7.36,10.46,12.73,7.51,2.6-1.35,4.34-3.93,4.6-6.85,0-12.56-17.35-10.38-17.33-.64"/>
        <path class="cls-4" d="m159.06,282.57c10.89-5.63,3.38-22.31-8.16-18.02-12.05,4.48-4.81,24.67,8.16,18.02"/>
        <path class="cls-4" d="m140.46,270.96c-1.58-5.53-7.35-8.73-12.88-7.15-5.53,1.58-8.73,7.35-7.15,12.88.09.32.2.64.32.95,2.27,6.64,9.05,8.45,14.55,5.63,4.97-2.56,6.91-7.16,5.18-12.34"/>
        <path class="cls-4" d="m205.39,255.83c8.64-4.53,1.79-16.89-6.31-13.75-9.27,3.57-3.39,18.84,6.31,13.75"/>
        <path class="cls-4" d="m182.7,257.42c3.43-1.98,4.86-5.26,4.82-7.35-.06-6.43-5.71-9.98-9.08-9.96-16.27.17-9.77,25.34,4.26,17.3"/>
        <path class="cls-4" d="m158.92,259.38c11.72-5.97,3.93-24.16-8.65-19.47-13,4.85-5.2,26.53,8.65,19.47"/>
        <path class="cls-4" d="m126.47,239.45c-5.9,2.22-9.06,8.63-7.23,14.66,2.25,6.65,9.92,9.19,15.65,6.52,12.74-5.98,4.92-25.71-8.45-21.18"/>
        <path class="cls-4" d="m194.36,229.4c2.23,4.41,7.17,5.71,11.99,2.89,3.75-2.21,4.69-5.63,3.98-8.69-3.02-13.34-21.58-5.31-15.95,5.8"/>
        <path class="cls-4" d="m102.25,239.94c-5.52,2.27-8.4,8.38-6.63,14.08,2.05,5.73,8.36,8.71,14.09,6.66.33-.12.66-.26.98-.41,12.5-5.87,4.53-25.18-8.53-20.33"/>
        <path class="cls-4" d="m182.58,234.25c4.36-2.44,4.82-5.14,5.07-6.63.53-3.49-.67-7.03-3.22-9.48-3.7-3.44-10.71-3.19-14.4.79-7.44,8.06,2.63,20.81,12.55,15.31"/>
        <path class="cls-4" d="m206.21,209.13c3.43-1.99,4.85-5.25,4.84-7.36-.06-6.42-5.71-9.98-9.07-9.96-16.27.18-9.78,25.39,4.23,17.31"/>
        <path class="cls-4" d="m182.43,211.07c11.72-5.99,3.95-24.18-8.65-19.49-13,4.86-5.2,26.54,8.65,19.49"/>
        <g class="cls-2">
          <path class="cls-4" d="m275.75,38.04c8.07-5.42-.99-16.94-8.99-12.03-7.25,4.48,0,18.05,8.99,12.03"/>
        </g>
        <g class="cls-2">
          <path class="cls-4" d="m266.48,11.89c1.68,2.55,5.1,2.61,7.95.55,1.38-.89,2.23-2.4,2.28-4.04-.8-10.32-15.5-4.64-10.23,3.49"/>
        </g>
        <g class="cls-2">
          <path class="cls-4" d="m250.52,14.03c7.73-4.81-.36-14.36-6.63-11.18-7.05,3.54-1.62,16.34,6.63,11.18"/>
        </g>
        <g class="cls-5">
          <path class="cls-4" d="m41.42,274.44c-1.24-5.96-5.56-6.32-8.1-5.82-10.47,2.18-4.84,18.94,5.09,12.55,2.32-1.38,3.53-4.07,3.01-6.73"/>
        </g>
        <g class="cls-2">
          <path class="cls-4" d="m8.81,269.63c-6.51,1.88-4.89,11.26.44,12.06,1.19.08,2.37-.18,3.42-.75,7.31-3.32,2.43-13.14-3.86-11.26"/>
        </g>
        <g class="cls-5">
          <path class="cls-4" d="m18.11,252.61c1.04-11.76-15.35-10.59-16.1-1.88-.6,6.65,6.14,10.13,10.9,8.11,4.26-1.82,5.04-4.28,5.2-6.24"/>
        </g>
        <path class="cls-4" d="m206.42,185.79c3.81-2.29,5.39-6.4,4.94-9.38-.94-6.82-7.56-9.73-11.26-9.19-16.31,2.31-7.92,27.16,6.33,18.6"/>
        <g class="cls-6">
          <path class="cls-4" d="m276.02,64.03c4.3-2.31,6.17-5.8,4.44-10.89-1.99-5.81-7.51-7.37-12.11-5.63-11.26,4.26-4.24,22.9,7.67,16.54"/>
        </g>
        <g class="cls-6">
          <path class="cls-4" d="m239.36,35.34c1.73,5.08,7.51,6.7,11.74,4.56s5.91-5.41,4.34-10.04c-3.59-10.53-19.6-4.92-16.08,5.48"/>
        </g>
        <g class="cls-6">
          <path class="cls-4" d="m225.83,15.88c11.59-4.91.08-20.06-8.23-12.28-5.94,5.57,1.31,15.23,8.23,12.28"/>
        </g>
        <g class="cls-6">
          <path class="cls-4" d="m66.43,276.14c1.02-11.75-15.33-10.6-16.11-1.88-.4,4.38,2.82,8.26,7.2,8.66,1.26.12,2.52-.07,3.69-.54,4.27-1.81,5.05-4.34,5.22-6.25"/>
        </g>
        <g class="cls-6">
          <path class="cls-4" d="m30.87,243.39c-11.26,4.26-3.49,21.15,7.05,15.95,10.28-5.1,2.82-19.66-7.05-15.95"/>
        </g>
        <g class="cls-6">
          <path class="cls-4" d="m19.33,228.57c.68-13.64-18.77-12.78-19.29-1.6-.38,7.62,7.51,11.73,12.98,9.44,5.47-2.29,6.18-5.47,6.32-7.84"/>
        </g>
        <path class="cls-4" d="m205.48,162.52c2.92-1.4,5.03-4.08,5.71-7.24,1.12-7.01-6.01-14.26-13.75-11.62-12.91,4.37-5.56,25.73,8.04,18.86"/>
        <path class="cls-4" d="m166.49,148.44c-2.72,5.59-.4,12.33,5.2,15.05,3.44,1.67,7.49,1.49,10.76-.49,7.58-4.32,7.13-15.95-.6-19.77-5.5-2.71-12.79,0-15.33,5.21"/>
        <g class="cls-1">
          <path class="cls-4" d="m276.52,89.52c2.93-1.38,5.04-4.06,5.71-7.23,1.12-7.03-6.02-14.25-13.75-11.64-12.93,4.39-5.56,25.75,8.04,18.86"/>
        </g>
        <g class="cls-1">
          <path class="cls-4" d="m237.18,56.44c.14,8.94,9,12.2,15.17,8.72,4.37-2.48,5.36-6.32,5.31-8.35-.08-5.58-4.48-10.14-10.05-10.42-4.69.06-10.54,4.22-10.44,10.05"/>
        </g>
        <g class="cls-1">
          <path class="cls-4" d="m214,34.98c1.6,6.94,8,9.27,13.81,5.89,7.99-4.6,4.27-19.41-6.57-16.89-4.2.94-8.57,5.26-7.24,11.03"/>
        </g>
        <g class="cls-1">
          <path class="cls-4" d="m190.06,8.88c0,7.76,7.36,10.47,12.73,7.51,2.61-1.35,4.35-3.94,4.61-6.86,0-12.55-17.36-10.39-17.34-.64"/>
        </g>
        <g class="cls-1">
          <path class="cls-4" d="m90.67,272c-3.67-10.78-20.59-5.49-16.81,5.71,1.93,5.68,7.3,7.59,12.61,4.69,4.79-2.62,5.55-6.42,4.19-10.42"/>
        </g>
        <g class="cls-1">
          <path class="cls-4" d="m54.88,242.17c-12.04,4.09-4.88,24.04,7.56,17.41,10-5.37,3.43-21.15-7.56-17.41"/>
        </g>
        <g class="cls-1">
          <path class="cls-4" d="m43.44,224.03c-2.02-5.39-8.02-8.12-13.41-6.1-5.16,1.94-7.92,7.56-6.3,12.83,2.27,6.64,9.06,8.45,14.55,5.63,4.97-2.56,6.93-7.18,5.17-12.37"/>
        </g>
        <g class="cls-1">
          <path class="cls-4" d="m6.19,194.73c-12.04,4.07-4.88,24.06,7.51,17.4,10.01-5.34,3.44-21.14-7.51-17.4"/>
        </g>
        <path class="cls-4" d="m204.96,137c4.3-2.31,6.17-5.79,4.45-10.89-1.98-5.84-7.51-7.35-12.11-5.63-11.26,4.25-4.24,22.91,7.67,16.53"/>
        <path class="cls-4" d="m43.04,176.12c-1.72-5.48-7.56-8.54-13.04-6.81-5.48,1.72-8.54,7.56-6.81,13.04.05.15.1.3.15.45,2.25,6.65,9.06,8.45,14.54,5.63,4.98-2.55,6.94-7.17,5.17-12.35"/>
        <path class="cls-4" d="m166.11,129.42c.16,8.94,9.01,12.2,15.19,8.72,4.36-2.5,5.34-6.32,5.31-8.34-.09-5.58-4.48-10.14-10.06-10.44-4.69.08-10.52,4.23-10.44,10.06"/>
        <path class="cls-4" d="m157.26,139.35c11.81-5.95,3.81-24.09-8.64-19.46-12.98,4.84-5.23,26.5,8.64,19.46"/>
        <g class="cls-3">
          <path class="cls-4" d="m277.51,112.81c3.32-1.91,5.25-5.56,4.95-9.38-.94-6.81-7.57-9.74-11.26-9.2-16.33,2.32-7.92,27.21,6.33,18.61"/>
        </g>
        <g class="cls-3">
          <path class="cls-4" d="m237.54,75.46c-2.71,5.6-.38,12.33,5.22,15.05,3.43,1.66,7.47,1.48,10.74-.49,7.59-4.31,7.13-15.95-.58-19.76-5.52-2.72-12.81,0-15.35,5.21"/>
        </g>
        <g class="cls-3">
          <path class="cls-4" d="m228.32,66.37c11.81-5.96,3.75-24.1-8.64-19.47-12.98,4.84-5.23,26.48,8.64,19.47"/>
        </g>
        <g class="cls-3">
          <path class="cls-4" d="m188.86,32.91c.14,8.96,8.99,12.2,15.17,8.72,3.15-1.6,5.18-4.78,5.32-8.31-.09-5.59-4.49-10.15-10.07-10.46-4.69.1-10.53,4.25-10.43,10.06"/>
        </g>
        <g class="cls-3">
          <path class="cls-4" d="m179.49,17.38c3.43-1.98,4.85-5.26,4.84-7.37-.07-6.43-5.71-9.97-9.09-9.94-16.27.15-9.76,25.34,4.25,17.3"/>
        </g>
        <g class="cls-3">
          <path class="cls-4" d="m103.1,265.32c-12.07,4.08-5.11,24.01,7.51,17.4,10.24-5.36,3.43-21.14-7.51-17.4"/>
        </g>
        <g class="cls-3">
          <path class="cls-4" d="m91.76,247.6c-1.62-5.52-7.41-8.68-12.93-7.06-5.52,1.62-8.68,7.41-7.06,12.93.08.28.18.55.28.82,2.27,6.63,9.06,8.45,14.55,5.63,4.98-2.55,6.93-7.18,5.18-12.36"/>
        </g>
        <g class="cls-3">
          <path class="cls-4" d="m68.86,228.05c.12-2.93-.86-5.79-2.76-8.02-7.6-9.48-27.21,1.97-16.98,14.73,2.39,2.98,8.04,4.44,12.33,2.71,6.05-2.4,7.33-6.68,7.4-9.38"/>
        </g>
        <g class="cls-3">
          <path class="cls-4" d="m44.45,202.94c-1.19-16.22-22.64-11.79-21.74.85.67,9.26,9.45,13.05,16.78,8.57,3.3-1.93,5.23-5.57,4.96-9.38"/>
        </g>
        <g class="cls-3">
          <path class="cls-4" d="m6.07,171.59c-11.26,4.25-3.5,21.12,7.05,15.95,10.27-5.1,2.82-19.71-7.05-15.95"/>
        </g>
        <path class="cls-4" d="m61.9,145.26c-1.94-.78-4.02-1.17-6.11-1.17-9.03,1.22-12.11,10.67-8.45,17.13,2.96,5.2,9.97,6.19,15.27,2.95,7.24-4.41,5.96-15.36-.72-18.9"/>
        <path class="cls-4" d="m204.68,111.03c8.09-5.42-.99-16.94-8.95-12.03-7.27,4.47,0,18.05,8.95,12.03"/>
        <path class="cls-4" d="m29.71,146.42c-12.04,4.1-4.88,24.05,7.51,17.41,10-5.37,3.47-21.14-7.51-17.41"/>
        <path class="cls-4" d="m168.31,108.33c1.57,4.34,6.36,6.58,10.7,5.01.36-.13.71-.28,1.04-.46,4.13-2.09,5.92-5.41,4.34-10.04-3.59-10.53-19.58-4.91-16.07,5.49"/>
        <path class="cls-4" d="m91.31,126.31c-5.47-13.61-27.65-5.54-21.29,9.28,1.96,4.24,6.23,6.95,10.9,6.91,9.72-.6,12.9-9.92,10.39-16.16"/>
        <path class="cls-4" d="m142.95,107.97c1.6,6.93,8,9.24,13.81,5.89,7.98-4.61,4.27-19.41-6.57-16.89-4.2.99-8.59,5.26-7.24,11.03"/>
        <path class="cls-4" d="m16.97,156.85c1.03-11.75-15.35-10.59-16.12-1.88-.44,4.37,2.75,8.27,7.12,8.72,1.29.13,2.59-.06,3.78-.54,4.27-1.82,5.03-4.3,5.22-6.26"/>
        <path class="cls-4" d="m64.11,124.14c-5.38-6.13-17.69-2.53-18.25,6.21-.33,5.74,4.05,10.66,9.78,10.99,5.74.33,10.66-4.05,10.99-9.78.16-2.71-.75-5.37-2.53-7.42"/>
        <path class="cls-4" d="m117.8,105.9c.14,8.94,8.99,12.2,15.17,8.68,3.17-1.58,5.21-4.78,5.32-8.31-.11-5.58-4.5-10.13-10.07-10.44-4.69.09-10.53,4.24-10.43,10.08"/>
        <path class="cls-4" d="m195.39,84.87c1.67,2.54,5.07,2.61,7.94.55,1.37-.9,2.22-2.41,2.28-4.04-.79-10.32-15.49-4.64-10.22,3.49"/>
        <path class="cls-4" d="m108.96,115.83c11.69-5.95,3.92-24.15-8.66-19.45-13.01,4.84-5.2,26.51,8.66,19.45"/>
        <path class="cls-4" d="m29.22,123.38c-10.73,4.01-3.88,21.5,7.04,15.95,9.98-5.09,2.44-19.5-7.04-15.95"/>
        <path class="cls-4" d="m179.43,87.02c7.72-4.83-.36-14.37-6.65-11.18-7.04,3.54-1.6,16.33,6.65,11.18"/>
        <path class="cls-4" d="m90.71,104.09c-2.91-10.62-18.18-10.24-20.99-.59-2.46,8.45,6.26,17.76,15.69,12.58,4.79-2.63,6.57-7.24,5.3-11.99"/>
        <path class="cls-4" d="m154.81,88.86c11.58-4.92,0-20.07-8.25-12.27-5.94,5.63,1.3,15.21,8.25,12.27"/>
        <path class="cls-4" d="m6.54,124.96c-9.48,2.82-4.04,17.99,5.43,12.41,7.51-4.41.94-14.29-5.43-12.41"/>
        <path class="cls-4" d="m56.27,97.46c-4.98.2-9.87,4.92-9.7,9.83.28,8.16,8.07,11.16,13.84,8.33,10.32-5.05,3.97-18.44-4.14-18.16"/>
        <path class="cls-4" d="m119,81.86c0,7.78,7.36,10.47,12.74,7.51,2.61-1.34,4.34-3.93,4.6-6.85,0-12.56-17.35-10.39-17.34-.65"/>
        <path class="cls-4" d="m108.44,90.35c3.43-1.96,4.88-5.25,4.84-7.34-.06-6.45-5.71-9.98-9.08-9.97-16.27.16-9.76,25.34,4.24,17.3"/>
        <path class="cls-4" d="m40.32,106.96c-1.14-11.56-16.09-8.62-15.86.09.21,7.22,6.93,10.04,12.36,6.39,2.18-1.44,3.49-3.87,3.5-6.48"/>
        <path class="cls-4" d="m89.75,84.48c.74-5.44-2.95-10.49-8.36-11.42-9.23-1.07-15.16,10.16-8.45,17.12,2.69,2.82,7.71,3.39,12.07.79,2.49-1.31,4.23-3.71,4.69-6.48"/>
        <path class="cls-4" d="m13.88,106.98c-2.01-10.66-15.8-3.48-10.71,4.46,1.67,2.61,5.49,2.88,8.45.8,1.78-1.11,2.69-3.2,2.29-5.26"/>
        <path class="cls-4" d="m52.73,75.05c-10.71,4.03-3.87,21.51,7.04,15.95,9.97-5.08,2.44-19.5-7.04-15.95"/>
        <path class="cls-4" d="m30.05,76.64c-9.48,2.82-4.04,18.01,5.43,12.42,7.51-4.42.89-14.28-5.43-12.42"/>
        <path class="cls-4" d="m6.03,79.08c-6.11,2.48-1.51,11.43,3.84,8.89,6.63-3.13.94-10.8-3.84-8.89"/>
        <path class="cls-4" d="m109.76,238.22c4.29-1.45,6.75-5.55,8.14-8.45,2.9,11.07,18.11,11.1,22.81,2.44.87-1.62.69-3.26,1.56-5.03,1.65,8.11,8.36,12.46,15.56,9.8,6.52-2.41,8.55-9.62,6.87-14.56-4.01-11.81-22.03-8.91-22.52,3.2-.2-1.81-.66-3.58-1.38-5.26-1.53-3.17-4.92-4.22-5.76-6.17,4.41-1.28,5.77-5.63,7.26-7.35,3.43,6.32,10.08,9.03,16.63,5.76,10.15-5.1,6.37-20.82-2.82-22.69,6.93-1.88,8.64-6.28,9.69-11.04,1.62,7.88,8.32,12.07,15.44,9.38,6.57-2.44,8.67-9.75,6.74-14.91-4.09-11.03-21-8.83-22.32,2.69-1.19-7.06-6.46-9.09-9.34-10.69,7.65-2.96,10.26-9.92,7.51-16.38-4.61-10.68-20.37-7.51-22.68,1.59-2.3-5.75-6.22-8.05-10.84-8.99,7.44-1.42,10.32-8.09,9.72-12.27-1.54-9.86-10.23-12.72-17.63-8.69-5.39,2.97-6.48,10.65-3.57,15.9,1.74,3.18,5.06,3.98,7.94,5.44-5.08.09-8.02,5.3-9.83,7.02-1.75-4.28-6.42-5.92-8.57-7.27,6.57-3.12,9.8-8.34,7.51-15.17-2.01-6.21-8.68-9.62-14.89-7.6-.09.03-.19.06-.28.09-11.57,3.94-9.45,20.17.49,23.06-5.9,1.36-7.11,6.57-9.21,8.83-6.7-17.03-30.53-4.46-21.66,10.6,1.43,2.48,4.89,3.6,6.24,5.23-5.34,1.88-7.07,5.42-8.24,9.34-2.58-6.83-7.55-9.81-13.46-8.5-8.76,1.98-11.49,10.25-8.08,17.01,2.9,5.79,10.49,7.51,15.88,4.79,3.22-1.6,4.35-4.6,6.06-7.35,1.14,5.73,5.79,7.59,7.99,9.11-4.69,1.53-6.39,6.17-7.77,8.34-5.84-15.95-27.88-6.57-22.64,7.69,4.12,11.26,20.16,8.63,22.93-.85,1.41,6.2,6.71,7.75,9.31,9.47-12.06,3.54-9.98,19.61-.11,22.44,6.72,1.88,15.53-4.08,15.19-10.46,1.33,8.32,8.95,12.86,16.16,10.41m-24.94-72.18c4.39-1.59,6.48-4.31,7.14-7.7,1.78,2.96,3.34,6.39,6.16,7.28-1.88,2.1-4.85,3.67-5.63,6.36-2.44-2.27-4.81-4.62-7.71-5.94m32.78-6.65c1.04,3.43,3.18,4.69,5.26,5.94-1.36,2.2-4.81,3.3-5.34,5.9-1.79-1.88-3.37-4.25-5.75-4.97,2.71-1.92,4.01-4.52,5.83-6.87m17.23,6.35c2.97-2.28,5.63-4.69,6.19-8.17,2.34,4.05,5.05,7.39,9.16,7.86-3.56,1.77-7.08,3.59-7.88,6.78-2.39-2.34-4.18-5.89-7.51-6.47m-42.51,30.75c-1.6-3.14-4.08-4.5-6.75-5.44,2.57-1.37,4.84-3.26,6.66-5.54,1.36,2.82,3.62,3.75,5.29,5.96-2.05,1.09-3.61,2.94-4.34,5.14-.43.2-.71.14-.86-.12m25.01-10.48c2.06.94,3.11,3.97,5.53,4.24-1.57,1.77-4.34,2.93-4.75,5.28-2.06-.69-3.03-3.75-5.13-4.37,1.41-1.74,3.63-3.07,4.35-5.15m18.57,4.29c2.82-1.21,4.99-3.57,5.94-6.49,2.51,2.75,4.87,5.76,8.56,6.05-3.84,1.95-7.24,4.12-7.99,7.6-2.05-2.67-3.99-5.53-6.51-7.16m-11.33,24.2c-2.93,2.42-6.2,4.69-6.57,8.35-2.15-2.63-3.75-6.47-6.87-7.04,2.17-2.17,5.63-3.75,6.3-6.63,2.29,1.94,4,5.06,7.12,5.31m-39.9,1.33c3.47-1.48,6.46-3.89,8.63-6.98,1.55,3.8,4.2,5.43,7.1,6.57-3.54,2.51-6.33,5.4-6.57,9.56-2.16-4.83-4.81-8.71-9.2-9.11"/>
        <rect class="cls-4" x="77.57" y="82.07" width="124.55" height="119.08"/>
      </g>
    </g>
  </g>
</svg>